<?xml version="1.0" standalone="no"?>
<!DOCTYPE svg PUBLIC "-//W3C//DTD SVG 20010904//EN"
 "http://www.w3.org/TR/2001/REC-SVG-20010904/DTD/svg10.dtd">
<svg version="1.0" xmlns="http://www.w3.org/2000/svg"
 width="260.000000pt" height="260.000000pt" viewBox="0 0 260.000000 260.000000"
 preserveAspectRatio="xMidYMid meet">
<metadata>
Created by potrace 1.14, written by Peter Selinger 2001-2017
</metadata>
<g transform="translate(0.000000,260.000000) scale(0.100000,-0.100000)"
fill="#000000" stroke="none">
<path d="M1474 1856 c-3 -8 -4 -29 -2 -48 3 -33 3 -33 61 -36 l57 -3 0 -434 0
-434 -57 -3 -58 -3 0 -45 0 -45 301 -3 c280 -2 302 -1 309 15 24 61 75 207 75
215 0 11 -62 38 -87 38 -13 0 -25 -21 -46 -80 l-28 -80 -140 0 -139 0 0 430 0
430 55 0 55 0 0 50 0 50 -175 0 c-142 0 -177 -3 -181 -14z"/>
<path d="M664 1823 c-3 -16 -10 -43 -15 -62 -4 -19 -6 -38 -3 -43 3 -4 25 -8
50 -8 35 0 44 -3 44 -17 0 -25 -157 -760 -165 -773 -3 -5 -28 -10 -55 -10 -54
0 -57 -3 -66 -86 l-7 -54 195 0 c145 0 198 3 205 13 12 15 32 114 25 122 -3 3
-25 5 -49 5 -53 0 -53 -3 -15 175 l28 130 44 0 44 0 64 -215 c35 -118 69 -218
76 -223 6 -4 60 -6 121 -5 l110 3 11 50 c20 85 20 85 -35 85 l-49 0 -37 103
c-21 56 -48 130 -61 165 l-23 62 37 19 c98 51 166 124 198 213 20 57 21 192 1
238 -17 40 -58 81 -102 103 -55 28 -146 37 -357 37 l-208 0 -6 -27z m410 -133
c63 -14 81 -40 80 -113 -3 -129 -79 -197 -218 -197 l-64 0 29 138 c15 75 31
147 34 160 5 19 12 22 53 22 26 0 65 -5 86 -10z"/>
</g>
</svg>
